<?xml version="1.0" encoding="UTF-8" standalone="no"?>
<!DOCTYPE svg PUBLIC "-//W3C//DTD SVG 1.1//EN" "http://www.w3.org/Graphics/SVG/1.1/DTD/svg11.dtd">
<svg width="100%" height="100%" viewBox="0 0 1080 1080" version="1.1" xmlns="http://www.w3.org/2000/svg" xmlns:xlink="http://www.w3.org/1999/xlink" xml:space="preserve" xmlns:serif="http://www.serif.com/" style="fill-rule:evenodd;clip-rule:evenodd;stroke-linecap:round;stroke-linejoin:round;stroke-miterlimit:1.5;">
    <rect x="0" y="0" width="1080" height="1080" style="fill:white;"/>
    <g transform="matrix(1.06305,0,0,1.06305,-20.7019,19.4997)">
        <g id="Head" transform="matrix(1.49901,0,0,1.49901,-74.5096,142.244)">
            <path d="M231.479,203.293C295.379,203.293 347.258,255.171 347.258,319.071C347.258,372.438 333.236,431.89 324.623,459.299C322.157,467.147 305.025,477.325 294.492,477.325C262.433,477.325 206.645,463.994 169.864,432.256C133.334,400.734 115.701,350.911 115.701,319.071C115.701,255.171 167.58,203.293 231.479,203.293Z" style="fill:white;stroke:rgb(245,0,87);stroke-width:7.53px;"/>
        </g>
        <g id="Headset" transform="matrix(1.49901,0,0,1.49901,-225.312,-122.96)">
            <g>
                <path d="M306.774,451.743L274.881,510.334L306.774,573.081L375.822,577.202" style="fill:white;stroke:rgb(245,0,87);stroke-width:7.53px;"/>
                <g transform="matrix(1.09701,-0.548103,0.472023,0.944737,-283.672,259.042)">
                    <path d="M481.364,431.059L360.479,413.11L365.229,548.664L480.151,519.261L481.364,431.059Z" style="fill:white;stroke:rgb(245,0,87);stroke-width:6.58px;"/>
                </g>
            </g>
            <g>
                <g transform="matrix(2.00379,-1.01493,1.01493,2.00379,-902.779,-2.17432)">
                    <text x="425.229px" y="461.939px" style="font-family:'ArialMT', 'Arial', sans-serif;font-size:24px;fill:rgb(245,0,87);stroke:rgb(245,0,87);stroke-width:1.3px;stroke-linecap:butt;stroke-miterlimit:2;">R</text>
                </g>
                <g transform="matrix(2.22248,-1.05749,1.05749,2.22248,-932.35,-170.711)">
                    <text x="362.216px" y="479.582px" style="font-family:'ArialMT', 'Arial', sans-serif;font-size:24px;fill:rgb(245,0,87);stroke:rgb(245,0,87);stroke-width:1.19px;stroke-linecap:butt;stroke-miterlimit:2;">V</text>
                </g>
            </g>
        </g>
    </g>
    <g transform="matrix(1.06305,0,0,1.06305,-27.2578,-54.0606)">
        <g>
            <g transform="matrix(-1,1.22465e-16,-1.22465e-16,-1,1525.09,1173.86)">
                <path d="M639.553,637.365C612.136,626.126 595.379,611.11 595.379,594.625C595.379,560.704 657.539,532.95 746.313,531.573" style="fill:none;stroke:rgb(245,0,87);stroke-width:11.29px;stroke-linecap:butt;stroke-linejoin:miter;stroke-miterlimit:1;"/>
            </g>
            <g transform="matrix(-1,1.22465e-16,-1.22465e-16,-1,1525.09,1173.86)">
                <g transform="matrix(-0.940691,-1.15201e-16,1.15201e-16,-0.940691,1499.44,1123)">
                    <path d="M747.621,649.347L791.266,628.662L748.531,606.156C759.101,617.182 758.646,638.777 747.621,649.347Z" style="fill:rgb(245,0,87);"/>
                    <path d="M756.714,627.934C671.818,622.979 606.73,595.188 606.73,561.691C606.73,551.51 612.743,541.857 623.497,533.211" style="fill:none;stroke:rgb(245,0,87);stroke-width:12px;stroke-linecap:butt;stroke-linejoin:miter;stroke-miterlimit:1;"/>
                </g>
            </g>
        </g>
        <g transform="matrix(1.54894,0,0,1.39345,-400.853,-62.3199)">
            <path d="M821.548,435.504L879.949,360.988" style="fill:none;stroke:rgb(245,0,87);stroke-width:7.66px;stroke-linejoin:miter;stroke-miterlimit:1;"/>
        </g>
        <g transform="matrix(1.54894,0,0,1.39345,-400.853,-62.3199)">
            <path d="M879.949,360.988L718.548,360.988L615.548,435.504" style="fill:none;stroke:rgb(245,0,87);stroke-width:7.66px;stroke-linejoin:miter;stroke-miterlimit:1;stroke-dasharray:22.99,22.99,0,0;"/>
        </g>
        <g transform="matrix(1.49901,0,0,1.49901,-256.873,-212.407)">
            <rect x="540" y="292.098" width="212.861" height="212.861" style="fill:none;stroke:rgb(245,0,87);stroke-width:7.53px;"/>
        </g>
        <g transform="matrix(1.30553,0,0,1.17447,-20.7479,-152.364)">
            <path d="M752.861,504.96L752.861,292.098L561.368,292.098" style="fill:none;stroke:rgb(245,0,87);stroke-width:9.09px;"/>
        </g>
        <g transform="matrix(1.30553,0,0,1.17447,-20.7479,-152.364)">
            <path d="M561.368,292.098L561.368,504.96" style="fill:none;stroke:rgb(245,0,87);stroke-width:9.09px;stroke-dasharray:27.27,27.27,0,0;"/>
        </g>
        <g transform="matrix(1.49901,0,0,1.49901,-337.98,-100.426)">
            <path d="M594.107,217.395L700.538,194.211" style="fill:none;stroke:rgb(245,0,87);stroke-width:7.53px;"/>
        </g>
        <g transform="matrix(1.62088,-0.042174,-0.0379404,1.41569,-457.272,-29.2473)">
            <path d="M824.676,204.479L879.949,181.577" style="fill:none;stroke:rgb(245,0,87);stroke-width:7.62px;"/>
        </g>
    </g>
</svg>
